<?xml version="1.0" encoding="utf-8"?>
<!-- Generator: Adobe Illustrator 23.0.3, SVG Export Plug-In . SVG Version: 6.00 Build 0)  -->
<svg version="1.1" id="Layer_1" xmlns="http://www.w3.org/2000/svg" xmlns:xlink="http://www.w3.org/1999/xlink" x="0px" y="0px"
	 viewBox="0 0 22 22" style="enable-background:new 0 0 22 22;" xml:space="preserve">
<style type="text/css">
	.st0{fill:#423E38;}
	.st1{fill:#28231E;}
	.st2{fill:#035184;}
	.st3{fill:#FFFFFF;}
	.st4{opacity:0.38;fill:#04486E;}
	.st5{fill:#93D632;}
	.st6{fill:#8AC622;}
</style>
<g>
	<path class="st0" d="M17.91,20.45H4.09V5.64c0-2.42,1.96-4.39,4.39-4.39h5.05c2.42,0,4.39,1.96,4.39,4.39V20.45z"/>
	<path class="st1" d="M13.53,1.25h-1.69c2.42,0,4.39,1.96,4.39,4.39v14.81h1.69V5.64C17.91,3.21,15.95,1.25,13.53,1.25z"/>
	<path class="st2" d="M5.29,20.45V5.64c0-1.75,1.43-3.18,3.18-3.18h5.05c1.75,0,3.18,1.43,3.18,3.18v14.81L5.29,20.45L5.29,20.45z"
		/>
	<rect x="7.87" y="5.53" class="st3" width="6.25" height="1.22"/>
	<rect x="6.32" y="11.74" class="st3" width="9.36" height="1.22"/>
	<rect x="7.33" y="8.71" class="st3" width="7.34" height="1.22"/>
	<path class="st4" d="M13.53,2.46h-1.68c1.75,0,3.18,1.43,3.18,3.18v14.81h1.68V5.64C16.71,3.88,15.28,2.46,13.53,2.46z"/>
	<path class="st0" d="M18.49,20.45H3.51c-0.36,0-0.65-0.29-0.65-0.65v-1.81c0-0.36,0.29-0.65,0.65-0.65h14.98
		c0.36,0,0.65,0.29,0.65,0.65v1.81C19.14,20.16,18.85,20.45,18.49,20.45z"/>
	<path class="st1" d="M18.49,17.33H16.8c0.36,0,0.65,0.29,0.65,0.65v1.81c0,0.36-0.29,0.65-0.65,0.65h1.69
		c0.36,0,0.65-0.29,0.65-0.65v-1.81C19.14,17.62,18.85,17.33,18.49,17.33z"/>
	<path class="st5" d="M21.14,20.75H0.86c-0.18,0-0.25-0.23-0.11-0.34c1.01-0.72,5.21-1.27,10.25-1.27s9.24,0.54,10.25,1.27
		C21.4,20.52,21.32,20.75,21.14,20.75z"/>
	<path class="st6" d="M21.25,20.41c-1.01-0.72-5.21-1.27-10.25-1.27c-0.31,0-0.61,0-0.91,0.01c5.37,0.07,9.58,0.76,9.58,1.6h1.47
		C21.32,20.75,21.4,20.52,21.25,20.41z"/>
	<path d="M4.09,10.1c0.17,0,0.31-0.14,0.31-0.31V5.64c0-2.25,1.83-4.07,4.07-4.07h5.05c2.25,0,4.07,1.83,4.07,4.07v4.19
		c0,0.17,0.14,0.31,0.31,0.31s0.31-0.14,0.31-0.31V5.64c0-2.59-2.11-4.7-4.7-4.7H8.47c-2.59,0-4.7,2.11-4.7,4.7v4.16
		C3.78,9.96,3.92,10.1,4.09,10.1z"/>
	<path d="M21.43,20.16c-0.4-0.29-1.15-0.51-1.98-0.68v-1.5c0-0.53-0.43-0.96-0.96-0.96h-0.27v-5.74c0-0.17-0.14-0.31-0.31-0.31
		s-0.31,0.14-0.31,0.31v5.74h-0.58V5.64c0-1.93-1.57-3.49-3.49-3.49H8.47c-1.93,0-3.49,1.57-3.49,3.49v11.38H4.4v-5.74
		c0-0.17-0.14-0.31-0.31-0.31c-0.17,0-0.31,0.14-0.31,0.31v5.74H3.51c-0.53,0-0.96,0.43-0.96,0.96v1.5
		c-0.83,0.17-1.58,0.39-1.98,0.68c-0.18,0.13-0.25,0.35-0.18,0.56c0.07,0.21,0.26,0.34,0.47,0.34h20.28c0.22,0,0.41-0.14,0.47-0.34
		C21.68,20.51,21.61,20.29,21.43,20.16z M5.6,5.64c0-1.58,1.29-2.87,2.87-2.87h5.05c1.58,0,2.87,1.29,2.87,2.87v11.38H5.6V5.64z
		 M3.17,17.98c0-0.19,0.15-0.34,0.34-0.34h14.98c0.19,0,0.34,0.15,0.34,0.34v1.39c-0.4-0.07-0.79-0.12-1.16-0.17
		c-1.88-0.24-4.25-0.36-6.67-0.36c-2.43,0-4.8,0.13-6.67,0.36c-0.37,0.05-0.76,0.1-1.16,0.17L3.17,17.98L3.17,17.98z M1.4,20.44
		c1.37-0.51,4.86-0.98,9.6-0.98s8.23,0.47,9.6,0.98H1.4z"/>
</g>
</svg>
