<?xml version="1.0" encoding="utf-8"?>
<!-- Generator: Adobe Illustrator 23.0.3, SVG Export Plug-In . SVG Version: 6.00 Build 0)  -->
<svg version="1.1" id="Layer_1" xmlns="http://www.w3.org/2000/svg" xmlns:xlink="http://www.w3.org/1999/xlink" x="0px" y="0px"
	 viewBox="0 0 22 22" style="enable-background:new 0 0 22 22;" xml:space="preserve">
<style type="text/css">
	.st0{fill:#035184;}
	.st1{fill:#04486E;}
	.st2{fill:#EF7B65;}
	.st3{fill:#ED6B55;}
	.st4{fill:#D07D68;}
	.st5{fill:#E9937C;}
	.st6{fill:#B66D5C;}
	.st7{fill:#292727;}
	.st8{fill:#191818;}
	.st9{fill:#36B3CD;}
	.st10{fill:#2E9EB4;}
	.st11{fill:#020203;}
</style>
<g>
	<g>
		<path class="st0" d="M8.54,21.21H1.19v-2.96c0-1.7,1.38-3.07,3.07-3.07h1.2c1.7,0,3.07,1.38,3.07,3.07L8.54,21.21L8.54,21.21z"/>
		<path class="st1" d="M5.47,15.19H4.28c1.7,0,3.07,1.38,3.07,3.07v2.96h1.19v-2.96C8.54,16.56,7.16,15.19,5.47,15.19z"/>
		<path class="st2" d="M20.81,21.21h-7.35v-2.96c0-1.7,1.38-3.07,3.07-3.07h1.2c1.7,0,3.07,1.38,3.07,3.07L20.81,21.21L20.81,21.21z
			"/>
		<path class="st3" d="M17.74,15.19h-1.18c1.7,0,3.07,1.38,3.07,3.07v2.96h1.18v-2.96C20.81,16.56,19.43,15.19,17.74,15.19z"/>
		<path class="st4" d="M4.87,16.24L4.87,16.24c-0.47,0-0.84-0.38-0.84-0.84v-1.53h1.68v1.53C5.71,15.86,5.34,16.24,4.87,16.24z"/>
		<polygon class="st2" points="5.36,16.58 5.21,17.27 4.53,17.27 4.38,16.58 4.86,16.24 4.87,16.24 4.87,16.24 		"/>
		<g>
			<polygon class="st5" points="4.87,16.24 4.87,16.24 4.87,16.24 			"/>
			<polygon class="st5" points="4.87,16.24 4.86,16.24 4.86,16.24 			"/>
		</g>
		<polygon class="st2" points="5.44,19.69 4.87,20.46 4.3,19.69 4.53,17.27 5.22,17.27 		"/>
		<g>
			<path class="st6" d="M7.09,12.2l0.49,0c0.31,0,0.55-0.25,0.55-0.56l0-0.49c0-0.31-0.25-0.55-0.56-0.55l-0.49,0L7.09,12.2z"/>
			<path class="st6" d="M2.57,12.2l-0.49,0c-0.31,0-0.55-0.25-0.55-0.56l0-0.49c0-0.31,0.25-0.55,0.56-0.55l0.49,0L2.57,12.2z"/>
		</g>
		<path class="st5" d="M2.46,11.98l-0.01-1.76c-0.01-1.3,1.04-2.37,2.35-2.38l0,0c1.3-0.01,2.37,1.04,2.38,2.35l0.01,1.76
			c0.01,1.3-1.04,2.37-2.35,2.38l0,0C3.53,14.33,2.47,13.28,2.46,11.98z"/>
		<path class="st4" d="M7.17,10.19c-0.01-1.3-1.08-2.35-2.38-2.35l0,0c-0.2,0-0.39,0.03-0.57,0.07c1.01,0.26,1.76,1.18,1.77,2.27
			L6,11.94c0.01,1.11-0.75,2.04-1.77,2.31c0.19,0.05,0.4,0.08,0.61,0.07l0,0c1.3-0.01,2.35-1.08,2.35-2.38L7.17,10.19z"/>
		<path class="st7" d="M7.61,10.35c-0.08,0.15-0.12,0.4-0.14,0.66c-0.01,0.11-0.1,0.19-0.21,0.19l-0.05,0
			c-0.3,0-0.56-0.23-0.59-0.53c-0.06-0.57-0.24-1.6-0.73-1.66C5.15,8.92,4.64,8.56,3.95,8.53c-0.09,0-0.37,0.17-0.52,0.63
			c-0.09,0.28-0.23,0.53-0.4,0.77c-0.11,0.16-0.15,0.44-0.16,0.75c-0.01,0.31-0.26,0.57-0.58,0.57c-0.11,0-0.2-0.08-0.21-0.19
			c-0.05-0.5-0.12-1.02-0.21-1.22c-0.17-0.4,0.01-2.2,1.37-2.44c0.27-0.75,1.06-1.01,1.41-1.01c0.38,0,1.21-0.02,1.73,0.67
			c0.13,0.18,0.28,0.34,0.46,0.48c0.3,0.23,0.73,0.65,0.79,1.2C7.73,9.56,7.83,9.91,7.61,10.35z"/>
		<path class="st8" d="M7.64,8.72c-0.06-0.55-0.49-0.97-0.79-1.2c-0.18-0.13-0.33-0.3-0.46-0.48C5.87,6.35,5.04,6.37,4.66,6.37
			c-0.1,0-0.23,0.02-0.37,0.07c0.33,0.08,0.68,0.25,0.95,0.6c0.13,0.18,0.28,0.34,0.46,0.48c0.3,0.23,0.73,0.65,0.79,1.2
			c0.06,0.51,0.11,0.83,0.1,1.11c-0.01,0.26,0,0.53,0.03,0.79c0,0.02,0,0.04,0.01,0.05c0.03,0.3,0.29,0.53,0.59,0.53l0.05,0
			c0.11,0,0.2-0.08,0.21-0.19c0.02-0.26,0.06-0.51,0.14-0.66C7.83,9.91,7.73,9.56,7.64,8.72z"/>
		<g>
			<polygon class="st2" points="3.91,14.83 4.87,16.24 3.99,16.86 3.08,15.32 			"/>
			<polygon class="st2" points="5.83,14.83 4.87,16.24 5.76,16.86 6.66,15.32 			"/>
		</g>
		<path class="st9" d="M13.95,21.21h-5.9v-1.96c0-1.28,1.04-2.32,2.32-2.32h1.26c1.28,0,2.32,1.04,2.32,2.32L13.95,21.21
			L13.95,21.21z"/>
		<path class="st10" d="M11.63,16.94h-1.18c1.28,0,2.32,1.04,2.32,2.32v1.96h1.18v-1.96C13.95,17.97,12.91,16.94,11.63,16.94z"/>
		<path class="st4" d="M11,17.65L11,17.65c-0.37,0-0.68-0.3-0.68-0.68v-1.23h1.35v1.23C11.68,17.34,11.37,17.65,11,17.65z"/>
		<path class="st5" d="M9.23,14.62l-0.01-1.31c-0.01-0.97,0.77-1.77,1.75-1.77l0,0c0.97-0.01,1.77,0.77,1.77,1.75l0.01,1.31
			c0.01,0.97-0.77,1.77-1.75,1.77l0,0C10.03,16.37,9.24,15.59,9.23,14.62z"/>
		<path class="st4" d="M12.74,13.28c-0.01-0.97-0.8-1.75-1.77-1.75l0,0c-0.2,0-0.4,0.04-0.58,0.1c0.68,0.24,1.16,0.89,1.17,1.65
			l0.01,1.31c0.01,0.77-0.48,1.43-1.17,1.67c0.19,0.07,0.39,0.1,0.6,0.1l0,0c0.97-0.01,1.75-0.8,1.75-1.77L12.74,13.28z"/>
		<path class="st7" d="M13.5,13.35c0,0,0.33,0.89-0.17,1.18c0,0-0.08,0.44-0.56,0.45c-0.07,0-0.14-0.06-0.14-0.13v-0.68
			c0,0-0.58-0.1-0.7-0.8c0,0-0.38,0.28-0.93,0.28c-0.55,0-0.93-0.28-0.93-0.28c-0.12,0.71-0.7,0.8-0.7,0.8v0.68
			c0,0.07-0.06,0.13-0.14,0.13c-0.48-0.01-0.56-0.45-0.56-0.45c-0.5-0.3-0.17-1.18-0.17-1.18c-0.53-1.41,0.93-1.95,0.93-1.95
			C9.75,10.76,11,10.93,11,10.93s1.25-0.17,1.57,0.47C12.57,11.41,14.03,11.95,13.5,13.35z"/>
		<path class="st8" d="M12.57,11.41C12.25,10.76,11,10.93,11,10.93s-0.27-0.04-0.59-0.01c0.32,0.02,0.68,0.11,0.89,0.35
			c0.07,0.09,0.16,0.16,0.26,0.21c0.32,0.17,0.99,0.63,0.86,1.48c-0.04,0.3-0.02,0.61,0.09,0.9l0,0.01c0.08,0.2,0.11,0.41,0.11,0.62
			v0.36c0,0.07,0.06,0.13,0.14,0.13c0.48-0.01,0.56-0.45,0.56-0.45c0.5-0.3,0.17-1.18,0.17-1.18
			C14.03,11.95,12.57,11.41,12.57,11.41z"/>
		<path class="st4" d="M17.14,16.24L17.14,16.24c-0.47,0-0.84-0.38-0.84-0.84v-1.53h1.68v1.53C17.98,15.86,17.6,16.24,17.14,16.24z"
			/>
		<path class="st5" d="M14.76,12.15v-1.79c0-1.32,1.07-2.39,2.39-2.39l0,0c1.32,0,2.39,1.07,2.39,2.39v1.79
			c0,1.32-1.07,2.39-2.39,2.39l0,0C15.83,14.54,14.76,13.47,14.76,12.15z"/>
		<path class="st4" d="M17.16,7.97L17.16,7.97c-0.23,0-0.44,0.03-0.65,0.09c1.01,0.28,1.74,1.21,1.74,2.3v1.79
			c0,1.1-0.74,2.02-1.74,2.3c0.21,0.06,0.43,0.09,0.65,0.09l0,0c1.32,0,2.39-1.07,2.39-2.39v-1.79C19.55,9.04,18.48,7.97,17.16,7.97
			z"/>
		<path class="st7" d="M17.16,9.12c0,0,0.78,1,1.48,1.56c0.46,0.37,0.54,2.19,0.55,3.4c0,0.2,0.28,0.24,0.34,0.05
			c0.64-2.21,1.6-7.04-2.36-7.04c-4.13,0-3,4.95-2.31,7.12c0.06,0.19,0.33,0.14,0.33-0.05c0-1.07,0.03-2.68,0.27-3.39
			C15.9,9.39,17.16,9.12,17.16,9.12z"/>
		<path class="st8" d="M17.16,7.1c-0.21,0-0.41,0.01-0.6,0.04c1.83,0.26,2.36,1.76,2.37,3.4c0,0.4,0.04,0.79,0.1,1.19
			c0.12,0.72,0.15,1.64,0.15,2.36c0,0.2,0.28,0.24,0.34,0.05C20.16,11.92,21.11,7.1,17.16,7.1z"/>
		<g>
			<polygon class="st0" points="16.18,14.83 17.14,16.24 16.25,16.86 15.34,15.32 			"/>
			<polygon class="st0" points="18.09,14.83 17.14,16.24 18.02,16.86 18.93,15.32 			"/>
		</g>
		<path class="st11" d="M19.21,15.23c-0.02-0.06-0.07-0.12-0.13-0.16l-0.8-0.47c0.22-0.1,0.43-0.24,0.62-0.4
			c0.04,0.18,0.19,0.32,0.39,0.35c0.23,0.03,0.45-0.11,0.51-0.33c0.28-0.94,0.6-2.35,0.6-3.67c0-0.16-0.13-0.3-0.3-0.3c0,0,0,0,0,0
			c-0.16,0-0.3,0.13-0.3,0.3c0,0.9-0.16,1.85-0.35,2.65c-0.09-2.29-0.5-2.62-0.64-2.74c-0.67-0.54-1.43-1.51-1.43-1.52
			c-0.07-0.09-0.18-0.13-0.3-0.11c-0.06,0.01-1.43,0.32-1.93,1.85c-0.18,0.57-0.25,1.63-0.27,2.63c-0.39-1.48-0.77-3.78,0.13-5.02
			c0.44-0.61,1.14-0.9,2.14-0.9c1.41,0,2.23,0.64,2.53,1.95c0.04,0.16,0.19,0.26,0.35,0.22c0.16-0.04,0.26-0.19,0.22-0.35
			c-0.36-1.58-1.43-2.41-3.11-2.41c-1.18,0-2.06,0.38-2.61,1.14c-1.22,1.66-0.51,4.7,0.02,6.36c0.06,0.2,0.24,0.33,0.44,0.33
			c0.02,0,0.05,0,0.07-0.01c0.2-0.03,0.36-0.19,0.39-0.38c0.16,0.13,0.34,0.25,0.53,0.34v0.01l-0.8,0.48
			c-0.06,0.04-0.11,0.09-0.13,0.16c-0.84,0.41-1.47,1.15-1.75,2.03c-0.38-0.32-0.85-0.53-1.34-0.59v-0.26
			c0.45-0.24,0.8-0.65,0.97-1.14c0.37-0.07,0.57-0.33,0.65-0.54c0.41-0.33,0.35-0.96,0.23-1.36c0.15-0.44,0.13-0.86-0.04-1.23
			c-0.25-0.55-0.77-0.84-1-0.95c-0.43-0.65-1.52-0.57-1.78-0.54c-0.26-0.03-1.35-0.11-1.78,0.54c-0.18,0.08-0.55,0.29-0.82,0.65
			c0.01-0.06,0.02-0.12,0.02-0.19l0-0.49c0-0.34-0.21-0.64-0.5-0.77c0.17-0.4,0.13-0.76,0.06-1.33C7.96,8.94,7.95,8.82,7.93,8.68
			c-0.07-0.64-0.53-1.11-0.9-1.4c-0.14-0.11-0.27-0.25-0.4-0.42c-0.6-0.8-1.54-0.79-1.95-0.79l-0.02,0c-0.39,0-1.25,0.27-1.62,1.05
			C2.54,7.26,2.14,7.59,1.87,8.08C1.52,8.72,1.45,9.58,1.6,9.94c0.02,0.04,0.05,0.15,0.1,0.45c-0.27,0.14-0.46,0.43-0.46,0.75
			l0,0.49c0,0.23,0.09,0.44,0.25,0.6c0.16,0.16,0.37,0.25,0.6,0.25l0.13,0c0.17,0.85,0.75,1.55,1.52,1.89v0.21l-0.8,0.48
			c-0.06,0.04-0.11,0.09-0.13,0.15c-0.15,0.07-0.3,0.16-0.45,0.26c-0.13,0.09-0.17,0.28-0.08,0.41c0.06,0.08,0.15,0.13,0.24,0.13
			c0.06,0,0.12-0.02,0.17-0.05c0.1-0.07,0.21-0.13,0.32-0.19l0.73,1.23c0.04,0.07,0.11,0.12,0.19,0.14c0.02,0,0.04,0.01,0.06,0.01
			c0.06,0,0.12-0.02,0.17-0.05l0.03-0.02l0.04,0.2L4,19.66C4,19.73,4.02,19.8,4.06,19.86l0.57,0.78c0.06,0.08,0.14,0.12,0.24,0.12
			c0.09,0,0.18-0.04,0.24-0.12l0.57-0.78c0.04-0.06,0.06-0.13,0.06-0.2l-0.22-2.39l0.04-0.19l0.03,0.02
			c0.05,0.04,0.11,0.05,0.17,0.05c0.02,0,0.04,0,0.06-0.01c0.08-0.02,0.15-0.07,0.19-0.14l0.72-1.22c0.78,0.4,1.32,1.14,1.47,2
			c-0.29,0.43-0.45,0.93-0.45,1.46v1.66H1.49v-2.66c0-0.52,0.15-1.03,0.42-1.47c0.09-0.14,0.04-0.32-0.09-0.41
			c-0.14-0.09-0.32-0.04-0.41,0.09c-0.33,0.53-0.51,1.15-0.51,1.79v2.96c0,0.16,0.13,0.3,0.3,0.3l0,0h19.62l0,0l0,0l0,0
			c0.16,0,0.3-0.13,0.3-0.3v-2.96C21.11,16.95,20.37,15.79,19.21,15.23z M17.14,15.71l-0.55-0.8v-0.13
			c0.18,0.04,0.37,0.06,0.57,0.06c0.18,0,0.35-0.02,0.53-0.05v0.12L17.14,15.71z M18.18,15.23l0.34,0.2l-0.59,1l-0.38-0.27
			L18.18,15.23z M15.48,13.41c0.02-1.22,0.11-2.11,0.25-2.54c0.3-0.93,1-1.29,1.33-1.41c0.25,0.31,0.84,1,1.4,1.45
			c0.04,0.03,0.36,0.35,0.42,2.44c-0.39,0.56-1.03,0.9-1.72,0.9c-0.56,0-1.09-0.22-1.48-0.61C15.6,13.56,15.54,13.49,15.48,13.41z
			 M16.09,15.23l0.64,0.94l-0.38,0.27l-0.59-1L16.09,15.23z M10.62,16.62c0.12,0.02,0.25,0.03,0.37,0.03h0.02
			c0.13,0,0.25-0.01,0.37-0.04v0.35c0,0.21-0.17,0.38-0.38,0.38c-0.21,0-0.38-0.17-0.38-0.38L10.62,16.62L10.62,16.62z M11,16.07
			h-0.01c-0.63,0-1.19-0.41-1.39-1c0.04-0.07,0.06-0.14,0.06-0.22v-0.47c0.19-0.09,0.43-0.26,0.59-0.59
			c0.19,0.08,0.45,0.15,0.75,0.15c0.3,0,0.56-0.07,0.75-0.15c0.15,0.33,0.4,0.5,0.59,0.59v0.47c0,0.07,0.02,0.14,0.05,0.2
			C12.19,15.64,11.63,16.06,11,16.07z M8.76,12.37c0.21-0.47,0.77-0.68,0.77-0.69c0.07-0.03,0.13-0.08,0.16-0.15
			c0.18-0.37,0.99-0.35,1.26-0.31c0.03,0,0.05,0,0.08,0c0.27-0.04,1.08-0.06,1.26,0.31c0.03,0.07,0.09,0.12,0.16,0.15
			c0.01,0,0.56,0.22,0.77,0.68c0.12,0.26,0.11,0.55-0.01,0.88c-0.03,0.07-0.03,0.14,0,0.21c0.05,0.13,0.19,0.68-0.04,0.82
			c-0.07,0.04-0.12,0.12-0.14,0.2c0,0.01-0.02,0.11-0.11,0.16v-0.48c0-0.15-0.1-0.27-0.25-0.29c-0.05-0.01-0.38-0.1-0.46-0.56
			c-0.02-0.1-0.09-0.19-0.18-0.23c-0.1-0.04-0.2-0.03-0.29,0.04c0,0-0.31,0.22-0.75,0.22c-0.44,0-0.75-0.22-0.75-0.22
			c-0.08-0.06-0.19-0.07-0.29-0.04c-0.1,0.04-0.16,0.12-0.18,0.23c-0.08,0.46-0.41,0.55-0.46,0.56c-0.15,0.02-0.25,0.14-0.25,0.29
			v0.47C9,14.6,8.97,14.52,8.96,14.48c-0.01-0.09-0.06-0.15-0.14-0.2c-0.24-0.14-0.09-0.69-0.04-0.82c0.03-0.07,0.03-0.14,0-0.21
			C8.65,12.92,8.65,12.62,8.76,12.37z M7.83,11.15l0,0.49c0,0.07-0.03,0.13-0.07,0.18c-0.05,0.05-0.11,0.08-0.18,0.08l-0.1,0l0-0.45
			c0.16-0.07,0.28-0.23,0.29-0.42c0-0.01,0-0.03,0-0.04C7.8,11.03,7.83,11.09,7.83,11.15z M2.39,8.37C2.61,7.98,2.91,7.75,3.3,7.68
			c0.11-0.02,0.19-0.09,0.23-0.19C3.74,6.88,4.4,6.67,4.66,6.67l0.02,0c0.03,0,0.06,0,0.09,0c0.38,0,0.99,0.04,1.38,0.55
			c0.16,0.22,0.33,0.39,0.52,0.53C6.9,7.93,7.29,8.3,7.34,8.75c0.02,0.14,0.03,0.26,0.04,0.37c0.07,0.57,0.1,0.8-0.05,1.09
			c0,0,0,0,0,0C7.3,10.3,7.26,10.4,7.24,10.53c0,0,0,0.01,0,0.01c-0.02,0.1-0.04,0.22-0.05,0.36c-0.14-0.01-0.25-0.12-0.27-0.26
			C6.79,9.43,6.46,8.78,5.92,8.71C5.6,8.67,5.33,8.58,5.05,8.48C4.71,8.37,4.37,8.25,3.96,8.23C3.7,8.22,3.32,8.52,3.14,9.06
			C3.07,9.28,2.95,9.51,2.78,9.75c-0.13,0.19-0.2,0.47-0.21,0.91c0,0.13-0.09,0.23-0.2,0.27c0,0,0,0,0,0
			C2.28,10.09,2.2,9.83,2.15,9.71C2.09,9.56,2.1,8.91,2.39,8.37z M1.9,11.82c-0.05-0.05-0.08-0.11-0.07-0.18l0-0.4
			c0.06,0.13,0.18,0.24,0.33,0.27l0,0.39l-0.07,0C2.02,11.9,1.95,11.87,1.9,11.82z M2.75,11.98l0-0.58
			c0.24-0.15,0.41-0.42,0.42-0.72c0.01-0.4,0.07-0.54,0.11-0.59c0.2-0.29,0.35-0.57,0.44-0.85c0.08-0.26,0.22-0.38,0.27-0.42
			c0.31,0.02,0.58,0.12,0.88,0.22c0.3,0.1,0.62,0.21,1,0.26c0.13,0.02,0.37,0.41,0.47,1.4c0.03,0.34,0.26,0.62,0.55,0.73l0,0.51
			c0,0.55-0.21,1.07-0.59,1.47c-0.2,0.2-0.43,0.36-0.68,0.46c0,0-0.01,0-0.01,0c-0.24,0.1-0.5,0.15-0.76,0.15H4.82
			C3.69,14.03,2.76,13.11,2.75,11.98z M4.82,14.62h0.02c0.2,0,0.39-0.02,0.58-0.07v0.36l-0.55,0.8l-0.55-0.8v-0.34
			C4.49,14.6,4.65,14.62,4.82,14.62z M3.48,15.43l0.34-0.2l0.64,0.94l-0.38,0.27L3.48,15.43z M4.87,16.6l0.16,0.11l-0.06,0.26H4.77
			l-0.06-0.26l0.02-0.01L4.87,16.6z M4.87,19.96L4.6,19.6l0.19-2.04h0.15l0.19,2.04L4.87,19.96z M5.66,16.43l-0.38-0.27l0.64-0.94
			l0.34,0.2L5.66,16.43z M6.94,15.23c-0.02-0.07-0.07-0.12-0.13-0.16l-0.81-0.48v-0.25c0.26-0.13,0.49-0.3,0.7-0.51
			c0.37-0.37,0.61-0.83,0.71-1.33l0.15,0c0.23,0,0.44-0.09,0.6-0.25c-0.12,0.34-0.12,0.72,0.01,1.11c-0.12,0.4-0.18,1.03,0.23,1.36
			c0.08,0.21,0.27,0.47,0.63,0.54c0.17,0.5,0.53,0.91,0.99,1.16v0.25c-0.5,0.06-0.96,0.27-1.34,0.59
			C8.41,16.38,7.78,15.64,6.94,15.23z M20.51,20.92h-6.27v-0.04c0-0.16-0.13-0.3-0.3-0.3s-0.3,0.13-0.3,0.3v0.04l0,0h-5.3l0,0v-1.66
			c0-1.01,0.75-1.85,1.72-2c0.12,0.4,0.49,0.69,0.93,0.69s0.81-0.29,0.93-0.69c0.97,0.15,1.72,0.99,1.72,2v0.36
			c0,0.16,0.13,0.3,0.3,0.3s0.3-0.13,0.3-0.3v-0.36c0-0.53-0.16-1.03-0.45-1.46c0.15-0.87,0.7-1.61,1.47-2.01L16,17.01
			c0.04,0.07,0.11,0.12,0.19,0.14c0.02,0,0.04,0.01,0.06,0.01c0.06,0,0.12-0.02,0.17-0.05l0.71-0.5l0.71,0.5
			c0.05,0.04,0.11,0.05,0.17,0.05c0.02,0,0.04,0,0.06-0.01c0.08-0.02,0.15-0.07,0.19-0.14L19,15.78c0.93,0.47,1.51,1.42,1.51,2.47
			V20.92z"/>
		<circle class="st11" cx="17.16" cy="18.04" r="0.3"/>
		<circle class="st11" cx="17.16" cy="19.37" r="0.3"/>
		<circle class="st11" cx="11.03" cy="18.95" r="0.3"/>
		<circle class="st11" cx="11.03" cy="20.17" r="0.3"/>
	</g>
	<g>
		<path class="st2" d="M11,1C8.99,1,7.35,2.63,7.35,4.64S8.99,8.29,11,8.29s3.65-1.64,3.65-3.65S13.01,1,11,1z M11,7.66
			c-1.67,0-3.02-1.36-3.02-3.02S9.33,1.62,11,1.62s3.02,1.36,3.02,3.02S12.67,7.66,11,7.66z"/>
		<path class="st2" d="M12.41,3.23c-0.12-0.12-0.32-0.12-0.44,0L11,4.2l-0.97-0.97c-0.12-0.12-0.32-0.12-0.44,0
			c-0.12,0.12-0.12,0.32,0,0.44l0.97,0.97L9.59,5.61c-0.12,0.12-0.12,0.32,0,0.44c0.06,0.06,0.14,0.09,0.22,0.09
			c0.08,0,0.16-0.03,0.22-0.09L11,5.09l0.97,0.97c0.06,0.06,0.14,0.09,0.22,0.09c0.08,0,0.16-0.03,0.22-0.09
			c0.12-0.12,0.12-0.32,0-0.44l-0.97-0.97l0.97-0.97C12.53,3.55,12.53,3.36,12.41,3.23z"/>
	</g>
</g>
</svg>
